<!-- Generated by IcoMoon.io -->
<svg version="1.1" xmlns="http://www.w3.org/2000/svg" width="232" height="32" viewBox="0 0 232 32">
<path fill="#2196f3" d="M13.27 0.947h5.283l3.328 9.776 3.328-9.776h5.325l-5.034 13.437 3.744 9.443 8.362-22.963h6.24l-12.022 29.536h-4.826l-5.117-12.397-5.117 12.397h-4.826l-11.939-29.536h6.157l8.403 22.963 3.661-9.443-4.95-13.437zM55.007 30.816c-1.747 0-3.328-0.291-4.742-0.874-1.414-0.61-2.621-1.428-3.619-2.454s-1.775-2.219-2.33-3.578c-0.527-1.359-0.79-2.787-0.79-4.285 0-1.553 0.264-3.009 0.79-4.368 0.527-1.387 1.29-2.593 2.288-3.619 0.998-1.054 2.205-1.886 3.619-2.496 1.442-0.61 3.051-0.915 4.826-0.915s3.356 0.305 4.742 0.915c1.414 0.61 2.607 1.428 3.578 2.454 0.998 1.026 1.747 2.219 2.246 3.578 0.527 1.359 0.79 2.773 0.79 4.243 0 0.36-0.014 0.707-0.042 1.040 0 0.333-0.028 0.61-0.083 0.832h-16.848c0.083 0.86 0.291 1.622 0.624 2.288s0.763 1.234 1.29 1.706c0.527 0.472 1.123 0.832 1.789 1.082s1.359 0.374 2.080 0.374c1.109 0 2.149-0.264 3.12-0.79 0.998-0.555 1.678-1.276 2.038-2.163l4.784 1.331c-0.804 1.664-2.094 3.037-3.869 4.118-1.747 1.054-3.841 1.581-6.282 1.581zM60.664 17.67c-0.139-1.636-0.749-2.94-1.83-3.91-1.054-0.998-2.344-1.498-3.869-1.498-0.749 0-1.456 0.139-2.122 0.416-0.638 0.25-1.206 0.61-1.706 1.082s-0.915 1.040-1.248 1.706c-0.305 0.666-0.485 1.4-0.541 2.205h11.315zM83.446 30.816c-1.664 0-3.148-0.374-4.451-1.123s-2.33-1.775-3.078-3.078v3.786h-4.867v-30.368h5.574v12.397c0.776-1.331 1.789-2.357 3.037-3.078 1.276-0.749 2.759-1.123 4.451-1.123 1.414 0 2.704 0.305 3.869 0.915s2.163 1.428 2.995 2.454c0.86 1.026 1.511 2.233 1.955 3.619 0.471 1.387 0.707 2.843 0.707 4.368 0 1.581-0.264 3.051-0.79 4.41-0.499 1.359-1.206 2.552-2.122 3.578-0.915 0.998-1.997 1.789-3.245 2.371s-2.593 0.874-4.035 0.874zM81.907 26.074c0.887 0 1.706-0.166 2.454-0.499 0.749-0.36 1.387-0.832 1.914-1.414s0.929-1.262 1.206-2.038c0.305-0.776 0.458-1.608 0.458-2.496s-0.139-1.733-0.416-2.538c-0.277-0.804-0.68-1.511-1.206-2.122-0.499-0.61-1.096-1.095-1.789-1.456s-1.456-0.541-2.288-0.541c-1.248 0-2.371 0.416-3.37 1.248-0.971 0.804-1.72 1.803-2.246 2.995v5.2c0.194 0.555 0.471 1.054 0.832 1.498 0.388 0.444 0.818 0.832 1.29 1.165 0.471 0.305 0.984 0.555 1.539 0.749 0.555 0.166 1.095 0.25 1.622 0.25z"></path>
<path fill="#fff" d="M116.8 8.602c-0.194-0.194-0.555-0.458-1.082-0.79-0.499-0.333-1.123-0.652-1.872-0.957-0.721-0.333-1.512-0.61-2.371-0.832s-1.733-0.333-2.621-0.333c-1.581 0-2.76 0.291-3.536 0.874s-1.165 1.401-1.165 2.454c0 0.61 0.139 1.123 0.416 1.539 0.305 0.388 0.735 0.735 1.29 1.040s1.248 0.582 2.080 0.832c0.86 0.25 1.844 0.513 2.954 0.79 1.442 0.388 2.746 0.804 3.91 1.248 1.192 0.444 2.191 0.998 2.995 1.664 0.832 0.666 1.47 1.47 1.914 2.413 0.444 0.915 0.666 2.052 0.666 3.411 0 1.581-0.305 2.94-0.915 4.077-0.582 1.109-1.387 2.011-2.413 2.704-0.998 0.693-2.163 1.206-3.494 1.539-1.304 0.305-2.676 0.458-4.118 0.458-2.219 0-4.41-0.333-6.573-0.998s-4.105-1.608-5.824-2.829l2.538-4.95c0.25 0.25 0.693 0.582 1.331 0.998 0.666 0.388 1.442 0.79 2.33 1.206 0.887 0.388 1.872 0.721 2.954 0.998s2.191 0.416 3.328 0.416c3.162 0 4.742-1.012 4.742-3.037 0-0.638-0.18-1.179-0.541-1.622s-0.874-0.832-1.539-1.165-1.47-0.638-2.413-0.915c-0.943-0.277-1.997-0.582-3.162-0.915-1.414-0.388-2.649-0.804-3.702-1.248-1.026-0.472-1.886-1.012-2.579-1.622-0.693-0.638-1.22-1.359-1.581-2.163-0.333-0.832-0.499-1.817-0.499-2.954 0-1.498 0.277-2.829 0.832-3.994s1.317-2.135 2.288-2.912c0.998-0.777 2.149-1.359 3.453-1.747 1.303-0.416 2.704-0.624 4.202-0.624 2.080 0 3.994 0.333 5.741 0.998 1.747 0.638 3.272 1.401 4.576 2.288l-2.538 4.659zM138.242 29.277c-0.749 0.333-1.664 0.666-2.746 0.998s-2.219 0.499-3.411 0.499c-0.777 0-1.512-0.097-2.205-0.291-0.666-0.194-1.262-0.499-1.789-0.915-0.499-0.444-0.901-0.998-1.206-1.664-0.305-0.693-0.458-1.525-0.458-2.496v-12.522h-2.87v-4.285h2.87v-7.072h5.574v7.072h4.576v4.285h-4.576v10.65c0 0.776 0.194 1.331 0.582 1.664 0.416 0.305 0.915 0.458 1.498 0.458s1.151-0.097 1.706-0.291c0.555-0.194 0.998-0.36 1.331-0.499l1.123 4.41zM149.049 30.816c-2.246 0-3.952-0.721-5.117-2.163s-1.747-3.578-1.747-6.406v-13.645h5.574v12.438c0 3.356 1.206 5.034 3.619 5.034 1.082 0 2.122-0.319 3.12-0.957 1.026-0.666 1.858-1.664 2.496-2.995v-13.52h5.575v15.392c0 0.582 0.096 0.998 0.291 1.248 0.221 0.25 0.568 0.388 1.040 0.416v4.742c-0.555 0.111-1.027 0.18-1.414 0.208-0.362 0.028-0.694 0.042-0.998 0.042-0.998 0-1.817-0.222-2.455-0.666-0.61-0.472-0.971-1.109-1.082-1.914l-0.125-1.747c-0.971 1.498-2.219 2.621-3.744 3.37s-3.203 1.123-5.034 1.123zM178.384 30.816c-1.498 0-2.885-0.291-4.16-0.874s-2.371-1.387-3.286-2.413c-0.915-1.026-1.637-2.219-2.163-3.578-0.499-1.387-0.749-2.87-0.749-4.451s0.235-3.051 0.707-4.41c0.499-1.359 1.179-2.551 2.038-3.578s1.886-1.83 3.078-2.413c1.192-0.582 2.496-0.874 3.91-0.874 1.608 0 3.051 0.388 4.326 1.165 1.304 0.777 2.315 1.789 3.037 3.037v-12.397h5.574v23.962c0 0.582 0.098 0.998 0.291 1.248s0.526 0.388 0.998 0.416v4.742c-0.971 0.194-1.762 0.291-2.371 0.291-0.998 0-1.816-0.25-2.454-0.749s-0.998-1.151-1.082-1.955l-0.125-1.373c-0.805 1.387-1.899 2.44-3.286 3.162-1.358 0.693-2.787 1.040-4.285 1.040zM179.84 26.074c0.526 0 1.067-0.083 1.622-0.25 0.555-0.194 1.067-0.458 1.539-0.79s0.888-0.721 1.248-1.165c0.389-0.444 0.68-0.929 0.874-1.456v-5.2c-0.222-0.61-0.541-1.165-0.957-1.664-0.389-0.527-0.846-0.971-1.373-1.331-0.499-0.388-1.040-0.693-1.622-0.915-0.555-0.222-1.109-0.333-1.664-0.333-0.832 0-1.608 0.18-2.33 0.541-0.693 0.361-1.29 0.86-1.789 1.498-0.499 0.61-0.888 1.317-1.165 2.122s-0.416 1.636-0.416 2.496c0 0.915 0.152 1.761 0.458 2.538s0.722 1.456 1.248 2.038c0.526 0.582 1.15 1.040 1.872 1.373 0.749 0.333 1.566 0.499 2.454 0.499zM197.418 30.4v-21.798h5.574v21.798h-5.574zM197.418 5.565v-5.533h5.574v5.533h-5.574zM219.336 30.816c-1.776 0-3.37-0.305-4.784-0.915s-2.621-1.428-3.619-2.454c-0.971-1.054-1.72-2.26-2.246-3.619-0.528-1.359-0.79-2.787-0.79-4.285 0-1.525 0.262-2.968 0.79-4.326 0.526-1.359 1.275-2.551 2.246-3.578 0.998-1.054 2.205-1.886 3.619-2.496s3.008-0.915 4.784-0.915c1.774 0 3.355 0.305 4.742 0.915 1.414 0.61 2.606 1.442 3.578 2.496 0.998 1.026 1.76 2.219 2.288 3.578 0.526 1.359 0.79 2.801 0.79 4.326 0 1.498-0.264 2.926-0.79 4.285-0.528 1.359-1.277 2.565-2.246 3.619-0.971 1.026-2.163 1.844-3.578 2.454s-3.010 0.915-4.784 0.915zM213.637 19.542c0 0.971 0.138 1.858 0.416 2.662 0.304 0.776 0.707 1.456 1.206 2.038 0.526 0.582 1.136 1.040 1.83 1.373 0.693 0.305 1.442 0.458 2.246 0.458 0.803 0 1.552-0.152 2.246-0.458 0.693-0.333 1.29-0.79 1.789-1.373 0.526-0.582 0.928-1.276 1.206-2.080 0.304-0.804 0.458-1.692 0.458-2.662 0-0.943-0.154-1.816-0.458-2.621-0.278-0.804-0.68-1.498-1.206-2.080-0.499-0.582-1.096-1.026-1.789-1.331-0.694-0.333-1.443-0.499-2.246-0.499-0.805 0-1.554 0.166-2.246 0.499-0.694 0.333-1.304 0.79-1.83 1.373-0.499 0.582-0.902 1.276-1.206 2.080-0.278 0.804-0.416 1.678-0.416 2.621z"></path>
</svg>
